<svg height="100" viewBox="0 0 100 100" width="100" xmlns="http://www.w3.org/2000/svg">
     <path d="m18.835,0.66666c-1,0 -0.69255,2.186 -2,4c-1.65381,2.29454 -4.23174,5.92767 -6,12c-1.15277,3.95868 -3,10 -3,18c0,6 0.69255,10.18601 2,12.00001c1.65381,2.29454 2,3 4,4c4,2 7.04132,1.84723 11,3c3.03616,0.88414 6.93774,2 15,2c8.06225,0 12.02581,-0.67964 13.99999,-1c3.12144,-0.50655 6,-1 8,-1c3,0 4.70546,1.34619 7,3c1.814,1.30745 4.2068,2.81265 6,5c2.28587,2.78833 5.41589,5.76108 7,9c2.7787,5.68144 2.34619,7.70546 4,10c1.30745,1.814 1.48625,4.82375 2,7c0.22975,0.97325 0,2 0,3c0,1 0,2 0,3c0,3 0,5 0,6l0,1" stroke-width="3" stroke="#000" fill="none"/>
</svg>